<svg width="16" height="16" viewBox="0 0 16 16" fill="none" xmlns="http://www.w3.org/2000/svg">
<path d="M12.0467 6.87996C11.92 6.87996 11.7934 6.83329 11.6934 6.73329L8.00002 3.03996L4.30668 6.73329C4.11335 6.92663 3.79335 6.92663 3.60002 6.73329C3.40668 6.53996 3.40668 6.21996 3.60002 6.02663L7.64668 1.97996C7.84002 1.78663 8.16002 1.78663 8.35335 1.97996L12.4 6.02663C12.5934 6.21996 12.5934 6.53996 12.4 6.73329C12.3067 6.83329 12.1734 6.87996 12.0467 6.87996Z" fill="#06A6FF"/>
<path d="M8 14.1663C7.72667 14.1663 7.5 13.9396 7.5 13.6663V2.44629C7.5 2.17296 7.72667 1.94629 8 1.94629C8.27333 1.94629 8.5 2.17296 8.5 2.44629V13.6663C8.5 13.9396 8.27333 14.1663 8 14.1663Z" fill="#06A6FF"/>
</svg>
