<svg width="1280" height="24" viewBox="0 0 1280 24" fill="none" xmlns="http://www.w3.org/2000/svg">
<path d="M1.57227 6.54688H2.85059L6.11133 14.6611L9.36523 6.54688H10.6504L6.60352 16.5H5.60547L1.57227 6.54688ZM1.15527 6.54688H2.2832L2.46777 12.6172V16.5H1.15527V6.54688ZM9.93262 6.54688H11.0605V16.5H9.74805V12.6172L9.93262 6.54688ZM17.5479 15.2354V11.4277C17.5479 11.1361 17.4886 10.8831 17.3701 10.6689C17.2562 10.4502 17.083 10.2816 16.8506 10.1631C16.6182 10.0446 16.3311 9.98535 15.9893 9.98535C15.6702 9.98535 15.39 10.04 15.1484 10.1494C14.9115 10.2588 14.7246 10.4023 14.5879 10.5801C14.4557 10.7578 14.3896 10.9492 14.3896 11.1543H13.125C13.125 10.89 13.1934 10.6279 13.3301 10.3682C13.4668 10.1084 13.6628 9.8737 13.918 9.66406C14.1777 9.44987 14.4876 9.28125 14.8477 9.1582C15.2122 9.0306 15.6178 8.9668 16.0645 8.9668C16.6022 8.9668 17.0762 9.05794 17.4863 9.24023C17.901 9.42253 18.2246 9.69824 18.457 10.0674C18.694 10.432 18.8125 10.89 18.8125 11.4414V14.8867C18.8125 15.1328 18.833 15.3949 18.874 15.6729C18.9196 15.9508 18.9857 16.1901 19.0723 16.3906V16.5H17.7529C17.6891 16.3542 17.639 16.1605 17.6025 15.9189C17.5661 15.6729 17.5479 15.445 17.5479 15.2354ZM17.7666 12.0156L17.7803 12.9043H16.502C16.1419 12.9043 15.8206 12.9339 15.5381 12.9932C15.2555 13.0479 15.0186 13.1322 14.8271 13.2461C14.6357 13.36 14.4899 13.5036 14.3896 13.6768C14.2894 13.8454 14.2393 14.0436 14.2393 14.2715C14.2393 14.5039 14.2917 14.7158 14.3965 14.9072C14.5013 15.0986 14.6585 15.2513 14.8682 15.3652C15.0824 15.4746 15.3444 15.5293 15.6543 15.5293C16.0417 15.5293 16.3835 15.4473 16.6797 15.2832C16.9759 15.1191 17.2106 14.9186 17.3838 14.6816C17.5615 14.4447 17.6572 14.2145 17.6709 13.9912L18.2109 14.5996C18.179 14.791 18.0924 15.0029 17.9512 15.2354C17.8099 15.4678 17.6208 15.6911 17.3838 15.9053C17.1514 16.1149 16.8734 16.2904 16.5498 16.4316C16.2308 16.5684 15.8708 16.6367 15.4697 16.6367C14.9684 16.6367 14.5286 16.5387 14.1504 16.3428C13.7767 16.1468 13.485 15.8848 13.2754 15.5566C13.0703 15.224 12.9678 14.8525 12.9678 14.4424C12.9678 14.0459 13.0452 13.6973 13.2002 13.3965C13.3551 13.0911 13.5785 12.8382 13.8701 12.6377C14.1618 12.4326 14.5127 12.2777 14.9229 12.1729C15.333 12.068 15.791 12.0156 16.2969 12.0156H17.7666ZM25.4639 15.0645V6H26.7354V16.5H25.5732L25.4639 15.0645ZM20.4873 12.8838V12.7402C20.4873 12.1751 20.5557 11.6624 20.6924 11.2021C20.8337 10.7373 21.0319 10.3385 21.2871 10.0059C21.5469 9.67318 21.8545 9.41797 22.21 9.24023C22.57 9.05794 22.971 8.9668 23.4131 8.9668C23.8779 8.9668 24.2835 9.04883 24.6299 9.21289C24.9808 9.3724 25.277 9.6071 25.5186 9.91699C25.7646 10.2223 25.9583 10.5915 26.0996 11.0244C26.2409 11.4574 26.3389 11.9473 26.3936 12.4941V13.123C26.3434 13.6654 26.2454 14.153 26.0996 14.5859C25.9583 15.0189 25.7646 15.388 25.5186 15.6934C25.277 15.9987 24.9808 16.2334 24.6299 16.3975C24.279 16.557 23.8688 16.6367 23.3994 16.6367C22.9665 16.6367 22.57 16.5433 22.21 16.3564C21.8545 16.1696 21.5469 15.9076 21.2871 15.5703C21.0319 15.2331 20.8337 14.8366 20.6924 14.3809C20.5557 13.9206 20.4873 13.4215 20.4873 12.8838ZM21.7588 12.7402V12.8838C21.7588 13.2529 21.7952 13.5993 21.8682 13.9229C21.9456 14.2464 22.0641 14.5312 22.2236 14.7773C22.3831 15.0234 22.5859 15.2171 22.832 15.3584C23.0781 15.4951 23.3721 15.5635 23.7139 15.5635C24.1331 15.5635 24.4772 15.4746 24.7461 15.2969C25.0195 15.1191 25.2383 14.8844 25.4023 14.5928C25.5664 14.3011 25.694 13.9844 25.7852 13.6426V11.9951C25.7305 11.7445 25.6507 11.5029 25.5459 11.2705C25.4456 11.0335 25.3135 10.8239 25.1494 10.6416C24.9899 10.4548 24.7917 10.3066 24.5547 10.1973C24.3223 10.0879 24.0465 10.0332 23.7275 10.0332C23.3812 10.0332 23.0827 10.1061 22.832 10.252C22.5859 10.3932 22.3831 10.5892 22.2236 10.8398C22.0641 11.0859 21.9456 11.373 21.8682 11.7012C21.7952 12.0247 21.7588 12.3711 21.7588 12.7402ZM31.7734 16.6367C31.2585 16.6367 30.7913 16.5501 30.3721 16.377C29.9574 16.1992 29.5996 15.9508 29.2988 15.6318C29.0026 15.3128 28.7747 14.9346 28.6152 14.4971C28.4557 14.0596 28.376 13.5811 28.376 13.0615V12.7744C28.376 12.1729 28.4648 11.6374 28.6426 11.168C28.8203 10.694 29.0618 10.293 29.3672 9.96484C29.6725 9.63672 30.0189 9.38835 30.4062 9.21973C30.7936 9.05111 31.1947 8.9668 31.6094 8.9668C32.138 8.9668 32.5938 9.05794 32.9766 9.24023C33.3639 9.42253 33.6807 9.67773 33.9268 10.0059C34.1729 10.3294 34.3551 10.7122 34.4736 11.1543C34.5921 11.5918 34.6514 12.0703 34.6514 12.5898V13.1572H29.1279V12.125H33.3867V12.0293C33.3685 11.7012 33.3001 11.3822 33.1816 11.0723C33.0677 10.7624 32.8854 10.5072 32.6348 10.3066C32.3841 10.1061 32.0423 10.0059 31.6094 10.0059C31.3223 10.0059 31.0579 10.0674 30.8164 10.1904C30.5749 10.3089 30.3675 10.4867 30.1943 10.7236C30.0212 10.9606 29.8867 11.25 29.791 11.5918C29.6953 11.9336 29.6475 12.3278 29.6475 12.7744V13.0615C29.6475 13.4124 29.6953 13.7428 29.791 14.0527C29.8913 14.3581 30.0348 14.627 30.2217 14.8594C30.4131 15.0918 30.6432 15.2741 30.9121 15.4062C31.1855 15.5384 31.4954 15.6045 31.8418 15.6045C32.2884 15.6045 32.6667 15.5133 32.9766 15.3311C33.2865 15.1488 33.5576 14.9049 33.79 14.5996L34.5557 15.208C34.3962 15.4495 34.1934 15.6797 33.9473 15.8984C33.7012 16.1172 33.3981 16.2949 33.0381 16.4316C32.6826 16.5684 32.2611 16.6367 31.7734 16.6367ZM41.4736 15.1875L43.374 9.10352H44.208L44.0439 10.3135L42.1094 16.5H41.2959L41.4736 15.1875ZM40.1953 9.10352L41.8154 15.2559L41.9316 16.5H41.0771L38.9307 9.10352H40.1953ZM46.0264 15.208L47.5713 9.10352H48.8291L46.6826 16.5H45.835L46.0264 15.208ZM44.3926 9.10352L46.252 15.085L46.4639 16.5H45.6572L43.668 10.2998L43.5039 9.10352H44.3926ZM51.502 9.10352V16.5H50.2305V9.10352H51.502ZM50.1348 7.1416C50.1348 6.93652 50.1963 6.76335 50.3193 6.62207C50.4469 6.48079 50.6338 6.41016 50.8799 6.41016C51.1214 6.41016 51.306 6.48079 51.4336 6.62207C51.5658 6.76335 51.6318 6.93652 51.6318 7.1416C51.6318 7.33757 51.5658 7.50618 51.4336 7.64746C51.306 7.78418 51.1214 7.85254 50.8799 7.85254C50.6338 7.85254 50.4469 7.78418 50.3193 7.64746C50.1963 7.50618 50.1348 7.33757 50.1348 7.1416ZM56.6289 9.10352V10.0742H52.6299V9.10352H56.6289ZM53.9834 7.30566H55.248V14.668C55.248 14.9186 55.2868 15.1077 55.3643 15.2354C55.4417 15.363 55.542 15.4473 55.665 15.4883C55.7881 15.5293 55.9202 15.5498 56.0615 15.5498C56.1663 15.5498 56.2757 15.5407 56.3896 15.5225C56.5081 15.4997 56.597 15.4814 56.6562 15.4678L56.6631 16.5C56.5628 16.5319 56.4307 16.5615 56.2666 16.5889C56.1071 16.6208 55.9134 16.6367 55.6855 16.6367C55.3757 16.6367 55.0908 16.5752 54.8311 16.4521C54.5713 16.3291 54.3639 16.124 54.209 15.8369C54.0586 15.5452 53.9834 15.1533 53.9834 14.6611V7.30566ZM59.377 6V16.5H58.1123V6H59.377ZM59.0762 12.5215L58.5498 12.501C58.5544 11.9951 58.6296 11.528 58.7754 11.0996C58.9212 10.6667 59.1263 10.2907 59.3906 9.97168C59.6549 9.65267 59.9694 9.40658 60.334 9.2334C60.7031 9.05566 61.111 8.9668 61.5576 8.9668C61.9222 8.9668 62.2503 9.01693 62.542 9.11719C62.8337 9.21289 63.082 9.36784 63.2871 9.58203C63.4967 9.79622 63.6562 10.0742 63.7656 10.416C63.875 10.7533 63.9297 11.1657 63.9297 11.6533V16.5H62.6582V11.6396C62.6582 11.2523 62.6012 10.9424 62.4873 10.71C62.3734 10.473 62.207 10.3021 61.9883 10.1973C61.7695 10.0879 61.5007 10.0332 61.1816 10.0332C60.8672 10.0332 60.5801 10.0993 60.3203 10.2314C60.0651 10.3636 59.8441 10.5459 59.6572 10.7783C59.4749 11.0107 59.3314 11.2773 59.2266 11.5781C59.1263 11.8743 59.0762 12.1888 59.0762 12.5215ZM68.332 17.48H82.332V3.48H68.332V17.48ZM86.7617 6H88.0332V15.0645L87.9238 16.5H86.7617V6ZM93.0303 12.7402V12.8838C93.0303 13.4215 92.9665 13.9206 92.8389 14.3809C92.7113 14.8366 92.5244 15.2331 92.2783 15.5703C92.0322 15.9076 91.7314 16.1696 91.376 16.3564C91.0205 16.5433 90.6126 16.6367 90.1523 16.6367C89.6829 16.6367 89.2705 16.557 88.915 16.3975C88.5641 16.2334 88.2679 15.9987 88.0264 15.6934C87.7848 15.388 87.5911 15.0189 87.4453 14.5859C87.304 14.153 87.2061 13.6654 87.1514 13.123V12.4941C87.2061 11.9473 87.304 11.4574 87.4453 11.0244C87.5911 10.5915 87.7848 10.2223 88.0264 9.91699C88.2679 9.6071 88.5641 9.3724 88.915 9.21289C89.266 9.04883 89.6738 8.9668 90.1387 8.9668C90.6035 8.9668 91.016 9.05794 91.376 9.24023C91.736 9.41797 92.0368 9.67318 92.2783 10.0059C92.5244 10.3385 92.7113 10.7373 92.8389 11.2021C92.9665 11.6624 93.0303 12.1751 93.0303 12.7402ZM91.7588 12.8838V12.7402C91.7588 12.3711 91.7246 12.0247 91.6562 11.7012C91.5879 11.373 91.4785 11.0859 91.3281 10.8398C91.1777 10.5892 90.9795 10.3932 90.7334 10.252C90.4873 10.1061 90.1842 10.0332 89.8242 10.0332C89.5052 10.0332 89.2272 10.0879 88.9902 10.1973C88.7578 10.3066 88.5596 10.4548 88.3955 10.6416C88.2314 10.8239 88.097 11.0335 87.9922 11.2705C87.8919 11.5029 87.8167 11.7445 87.7666 11.9951V13.6426C87.8395 13.9616 87.958 14.2692 88.1221 14.5654C88.2907 14.8571 88.514 15.0964 88.792 15.2832C89.0745 15.4701 89.4232 15.5635 89.8379 15.5635C90.1797 15.5635 90.4714 15.4951 90.7129 15.3584C90.959 15.2171 91.1572 15.0234 91.3076 14.7773C91.4626 14.5312 91.5765 14.2464 91.6494 13.9229C91.7223 13.5993 91.7588 13.2529 91.7588 12.8838ZM96.626 15.7344L98.6836 9.10352H100.037L97.0703 17.6416C97.002 17.8239 96.9108 18.0199 96.7969 18.2295C96.6875 18.4437 96.5462 18.6465 96.373 18.8379C96.1999 19.0293 95.9902 19.1842 95.7441 19.3027C95.5026 19.4258 95.2132 19.4873 94.876 19.4873C94.7757 19.4873 94.6481 19.4736 94.4932 19.4463C94.3382 19.4189 94.2288 19.3962 94.165 19.3779L94.1582 18.3525C94.1947 18.3571 94.2516 18.3617 94.3291 18.3662C94.4111 18.3753 94.4681 18.3799 94.5 18.3799C94.7871 18.3799 95.0309 18.3411 95.2314 18.2637C95.432 18.1908 95.6006 18.0654 95.7373 17.8877C95.8786 17.7145 95.9993 17.4753 96.0996 17.1699L96.626 15.7344ZM95.1152 9.10352L97.0361 14.8457L97.3643 16.1787L96.4551 16.6436L93.7344 9.10352H95.1152ZM110.852 13.335H112.164C112.096 13.9639 111.916 14.5267 111.624 15.0234C111.332 15.5202 110.92 15.9144 110.387 16.2061C109.854 16.4932 109.188 16.6367 108.391 16.6367C107.807 16.6367 107.276 16.5273 106.798 16.3086C106.324 16.0898 105.916 15.7799 105.574 15.3789C105.232 14.9733 104.968 14.488 104.781 13.9229C104.599 13.3532 104.508 12.7197 104.508 12.0225V11.0312C104.508 10.334 104.599 9.7028 104.781 9.1377C104.968 8.56803 105.235 8.0804 105.581 7.6748C105.932 7.26921 106.354 6.95703 106.846 6.73828C107.338 6.51953 107.892 6.41016 108.507 6.41016C109.259 6.41016 109.895 6.55143 110.414 6.83398C110.934 7.11654 111.337 7.50846 111.624 8.00977C111.916 8.50651 112.096 9.08301 112.164 9.73926H110.852C110.788 9.27441 110.669 8.87565 110.496 8.54297C110.323 8.20573 110.077 7.94596 109.758 7.76367C109.439 7.58138 109.022 7.49023 108.507 7.49023C108.065 7.49023 107.675 7.57454 107.338 7.74316C107.005 7.91178 106.725 8.15104 106.497 8.46094C106.274 8.77083 106.105 9.14225 105.991 9.5752C105.877 10.0081 105.82 10.4889 105.82 11.0176V12.0225C105.82 12.5101 105.87 12.9681 105.971 13.3965C106.076 13.8249 106.233 14.2008 106.442 14.5244C106.652 14.848 106.919 15.1032 107.242 15.29C107.566 15.4723 107.949 15.5635 108.391 15.5635C108.951 15.5635 109.398 15.4746 109.73 15.2969C110.063 15.1191 110.314 14.8639 110.482 14.5312C110.656 14.1986 110.779 13.7998 110.852 13.335ZM119.267 13.9844C119.267 13.752 119.23 13.5469 119.157 13.3691C119.089 13.1868 118.966 13.0228 118.788 12.877C118.615 12.7311 118.373 12.5921 118.063 12.46C117.758 12.3278 117.371 12.1934 116.901 12.0566C116.409 11.9108 115.965 11.749 115.568 11.5713C115.172 11.389 114.832 11.1816 114.55 10.9492C114.267 10.7168 114.051 10.4502 113.9 10.1494C113.75 9.84863 113.675 9.50456 113.675 9.11719C113.675 8.72982 113.755 8.37207 113.914 8.04395C114.074 7.71582 114.301 7.43099 114.598 7.18945C114.898 6.94336 115.256 6.75195 115.671 6.61523C116.086 6.47852 116.548 6.41016 117.059 6.41016C117.806 6.41016 118.439 6.55371 118.959 6.84082C119.483 7.12337 119.882 7.49479 120.155 7.95508C120.429 8.41081 120.565 8.89844 120.565 9.41797H119.253C119.253 9.04427 119.173 8.71387 119.014 8.42676C118.854 8.13509 118.613 7.90723 118.289 7.74316C117.965 7.57454 117.555 7.49023 117.059 7.49023C116.589 7.49023 116.202 7.56087 115.896 7.70215C115.591 7.84342 115.363 8.03483 115.213 8.27637C115.067 8.5179 114.994 8.79362 114.994 9.10352C114.994 9.31315 115.037 9.50456 115.124 9.67773C115.215 9.84635 115.354 10.0036 115.541 10.1494C115.732 10.2952 115.974 10.4297 116.266 10.5527C116.562 10.6758 116.915 10.7943 117.325 10.9082C117.89 11.0677 118.378 11.2454 118.788 11.4414C119.198 11.6374 119.535 11.8584 119.8 12.1045C120.069 12.346 120.267 12.6217 120.395 12.9316C120.527 13.237 120.593 13.5833 120.593 13.9707C120.593 14.3763 120.511 14.7432 120.347 15.0713C120.183 15.3994 119.948 15.6797 119.643 15.9121C119.337 16.1445 118.97 16.3245 118.542 16.4521C118.118 16.5752 117.644 16.6367 117.12 16.6367C116.66 16.6367 116.206 16.5729 115.76 16.4453C115.318 16.3177 114.914 16.1263 114.55 15.8711C114.19 15.6159 113.9 15.3014 113.682 14.9277C113.467 14.5495 113.36 14.112 113.36 13.6152H114.673C114.673 13.957 114.739 14.251 114.871 14.4971C115.003 14.7386 115.183 14.9391 115.411 15.0986C115.644 15.2581 115.906 15.3766 116.197 15.4541C116.493 15.527 116.801 15.5635 117.12 15.5635C117.58 15.5635 117.97 15.4997 118.289 15.3721C118.608 15.2445 118.85 15.0622 119.014 14.8252C119.182 14.5882 119.267 14.3079 119.267 13.9844ZM128.598 15.4268V16.5H123.327V15.4268H128.598ZM123.594 6.54688V16.5H122.274V6.54688H123.594ZM127.9 10.8262V11.8994H123.327V10.8262H127.9ZM128.529 6.54688V7.62695H123.327V6.54688H128.529Z" fill="black"/>
<path d="M1164.5 6H1161.5C1160.95 6 1160.5 6.44772 1160.5 7V10H1164.5C1164.61 9.99748 1164.72 10.0504 1164.79 10.1419C1164.86 10.2334 1164.88 10.352 1164.84 10.46L1164.1 12.66C1164.03 12.8619 1163.84 12.9984 1163.63 13H1160.5V20.5C1160.5 20.7761 1160.28 21 1160 21H1157.5C1157.22 21 1157 20.7761 1157 20.5V13H1155.5C1155.22 13 1155 12.7761 1155 12.5V10.5C1155 10.2239 1155.22 10 1155.5 10H1157V7C1157 4.79086 1158.79 3 1161 3H1164.5C1164.78 3 1165 3.22386 1165 3.5V5.5C1165 5.77614 1164.78 6 1164.5 6Z" fill="black"/>
<path fill-rule="evenodd" clip-rule="evenodd" d="M1200 3H1192C1189.24 3 1187 5.23858 1187 8V16C1187 18.7614 1189.24 21 1192 21H1200C1202.76 21 1205 18.7614 1205 16V8C1205 5.23858 1202.76 3 1200 3ZM1203.25 16C1203.24 17.7926 1201.79 19.2445 1200 19.25H1192C1190.21 19.2445 1188.76 17.7926 1188.75 16V8C1188.76 6.20735 1190.21 4.75549 1192 4.75H1200C1201.79 4.75549 1203.24 6.20735 1203.25 8V16ZM1200.75 8.25C1201.3 8.25 1201.75 7.80228 1201.75 7.25C1201.75 6.69772 1201.3 6.25 1200.75 6.25C1200.2 6.25 1199.75 6.69772 1199.75 7.25C1199.75 7.80228 1200.2 8.25 1200.75 8.25ZM1196 7.5C1193.51 7.5 1191.5 9.51472 1191.5 12C1191.5 14.4853 1193.51 16.5 1196 16.5C1198.49 16.5 1200.5 14.4853 1200.5 12C1200.5 10.8057 1200.03 9.65957 1199.18 8.81508C1198.34 7.97059 1197.19 7.49734 1196 7.5ZM1193.25 12C1193.25 13.5188 1194.48 14.75 1196 14.75C1197.52 14.75 1198.75 13.5188 1198.75 12C1198.75 10.4812 1197.52 9.25 1196 9.25C1194.48 9.25 1193.25 10.4812 1193.25 12Z" fill="black"/>
<path d="M1240.97 6.7174C1240.51 7.33692 1239.95 7.87733 1239.31 8.31776C1239.31 8.47959 1239.31 8.64142 1239.31 8.81225C1239.32 11.7511 1238.14 14.5691 1236.05 16.6345C1233.96 18.6999 1231.13 19.8399 1228.19 19.7989C1226.5 19.8046 1224.82 19.4169 1223.3 18.6661C1223.21 18.6302 1223.16 18.549 1223.16 18.4593V18.3604C1223.16 18.2313 1223.27 18.1267 1223.4 18.1267C1225.06 18.0716 1226.67 17.4929 1228 16.4724C1226.49 16.4419 1225.13 15.5469 1224.5 14.1707C1224.47 14.0956 1224.48 14.0093 1224.53 13.9432C1224.57 13.8771 1224.65 13.8407 1224.73 13.8471C1225.19 13.8932 1225.66 13.8505 1226.1 13.7212C1224.43 13.375 1223.18 11.9904 1223 10.2957C1222.99 10.2144 1223.03 10.1357 1223.1 10.0879C1223.16 10.0402 1223.25 10.0303 1223.32 10.062C1223.77 10.2595 1224.25 10.3635 1224.74 10.3676C1223.28 9.40846 1222.65 7.58405 1223.21 5.92622C1223.26 5.76513 1223.4 5.64612 1223.57 5.61294C1223.74 5.57975 1223.91 5.63728 1224.02 5.76439C1226 7.86325 1228.71 9.11396 1231.58 9.25279C1231.51 8.95885 1231.47 8.65676 1231.47 8.35372C1231.5 6.76472 1232.48 5.34921 1233.96 4.76987C1235.44 4.19054 1237.12 4.56203 1238.22 5.71044C1238.97 5.56785 1239.7 5.31645 1240.37 4.96421C1240.42 4.93331 1240.48 4.93331 1240.53 4.96421C1240.56 5.01373 1240.56 5.07652 1240.53 5.12604C1240.21 5.87552 1239.65 6.50412 1238.95 6.92419C1239.57 6.85296 1240.17 6.70807 1240.75 6.49264C1240.8 6.45942 1240.86 6.45942 1240.91 6.49264C1240.95 6.51134 1240.98 6.54711 1240.99 6.59042C1241.01 6.63373 1241 6.68018 1240.97 6.7174Z" fill="black"/>
<path fill-rule="evenodd" clip-rule="evenodd" d="M1261 3H1275C1276.1 3 1277 3.89543 1277 5V19C1277 20.1046 1276.1 21 1275 21H1261C1259.9 21 1259 20.1046 1259 19V5C1259 3.89543 1259.9 3 1261 3ZM1264 18C1264.28 18 1264.5 17.7761 1264.5 17.5V10.5C1264.5 10.2239 1264.28 10 1264 10H1262.5C1262.22 10 1262 10.2239 1262 10.5V17.5C1262 17.7761 1262.22 18 1262.5 18H1264ZM1263.25 9C1262.42 9 1261.75 8.32843 1261.75 7.5C1261.75 6.67157 1262.42 6 1263.25 6C1264.08 6 1264.75 6.67157 1264.75 7.5C1264.75 8.32843 1264.08 9 1263.25 9ZM1273.5 18C1273.78 18 1274 17.7761 1274 17.5V12.9C1274.03 11.3108 1272.86 9.95452 1271.28 9.76C1270.18 9.65925 1269.11 10.1744 1268.5 11.1V10.5C1268.5 10.2239 1268.28 10 1268 10H1266.5C1266.22 10 1266 10.2239 1266 10.5V17.5C1266 17.7761 1266.22 18 1266.5 18H1268C1268.28 18 1268.5 17.7761 1268.5 17.5V13.75C1268.5 12.9216 1269.17 12.25 1270 12.25C1270.83 12.25 1271.5 12.9216 1271.5 13.75V17.5C1271.5 17.7761 1271.72 18 1272 18H1273.5Z" fill="black"/>
</svg>
