<svg width="140" height="28" viewBox="0 0 140 28" fill="none" xmlns="http://www.w3.org/2000/svg">
<g clip-path="url(#clip0_611_722)">
<path d="M14 20.1484L18.8416 23.0767C19.7283 23.6134 20.8133 22.8201 20.58 21.8167L19.2966 16.3101L23.5783 12.6001C24.36 11.9234 23.94 10.6401 22.9133 10.5584L17.2783 10.0801L15.0733 4.87672C14.6766 3.93172 13.3233 3.93172 12.9266 4.87672L10.7216 10.0684L5.08663 10.5467C4.05996 10.6284 3.63996 11.9117 4.42163 12.5884L8.7033 16.2984L7.41996 21.8051C7.18663 22.8084 8.27163 23.6017 9.1583 23.0651L14 20.1484Z" fill="#FFD429"/>
<path d="M42 20.1484L46.8416 23.0767C47.7283 23.6134 48.8133 22.8201 48.58 21.8167L47.2966 16.3101L51.5783 12.6001C52.36 11.9234 51.94 10.6401 50.9133 10.5584L45.2783 10.0801L43.0733 4.87672C42.6766 3.93172 41.3233 3.93172 40.9266 4.87672L38.7216 10.0684L33.0866 10.5467C32.06 10.6284 31.64 11.9117 32.4216 12.5884L36.7033 16.2984L35.42 21.8051C35.1866 22.8084 36.2716 23.6017 37.1583 23.0651L42 20.1484Z" fill="#FFD429"/>
<path d="M70 20.1484L74.8416 23.0767C75.7283 23.6134 76.8133 22.8201 76.58 21.8167L75.2966 16.3101L79.5783 12.6001C80.36 11.9234 79.94 10.6401 78.9133 10.5584L73.2783 10.0801L71.0733 4.87672C70.6766 3.93172 69.3233 3.93172 68.9266 4.87672L66.7216 10.0684L61.0866 10.5467C60.06 10.6284 59.64 11.9117 60.4216 12.5884L64.7033 16.2984L63.42 21.8051C63.1866 22.8084 64.2716 23.6017 65.1583 23.0651L70 20.1484Z" fill="#FFD429"/>
<path d="M98 20.1484L102.842 23.0767C103.728 23.6134 104.813 22.8201 104.58 21.8167L103.297 16.3101L107.578 12.6001C108.36 11.9234 107.94 10.6401 106.913 10.5584L101.278 10.0801L99.0733 4.87672C98.6766 3.93172 97.3233 3.93172 96.9266 4.87672L94.7216 10.0684L89.0866 10.5467C88.06 10.6284 87.64 11.9117 88.4216 12.5884L92.7033 16.2984L91.42 21.8051C91.1866 22.8084 92.2716 23.6017 93.1583 23.0651L98 20.1484Z" fill="#FFD429"/>
<path d="M126 20.1484L130.842 23.0767C131.728 23.6134 132.813 22.8201 132.58 21.8167L131.297 16.3101L135.578 12.6001C136.36 11.9234 135.94 10.6401 134.913 10.5584L129.278 10.0801L127.073 4.87672C126.677 3.93172 125.323 3.93172 124.927 4.87672L122.722 10.0684L117.087 10.5467C116.06 10.6284 115.64 11.9117 116.422 12.5884L120.703 16.2984L119.42 21.8051C119.187 22.8084 120.272 23.6017 121.158 23.0651L126 20.1484Z" fill="#FFD429"/>
</g>
<defs>
<clipPath id="clip0_611_722">
<rect width="140" height="28" fill="white"/>
</clipPath>
</defs>
</svg>
